<?xml version="1.0" encoding="UTF-8" standalone="no"?>
<svg
   xmlns:dc="http://purl.org/dc/elements/1.1/"
   xmlns:cc="http://creativecommons.org/ns#"
   xmlns:rdf="http://www.w3.org/1999/02/22-rdf-syntax-ns#"
   xmlns:svg="http://www.w3.org/2000/svg"
   xmlns="http://www.w3.org/2000/svg"
   viewBox="0 0 633.52002 206.08"
   height="206.08"
   width="633.52002"
   xml:space="preserve"
   id="svg2"
   version="1.1"><metadata
     id="metadata8"><rdf:RDF><cc:Work
         rdf:about=""><dc:format>image/svg+xml</dc:format><dc:type
           rdf:resource="http://purl.org/dc/dcmitype/StillImage" /></cc:Work></rdf:RDF></metadata><defs
     id="defs6" /><g
     transform="matrix(1.3333333,0,0,-1.3333333,0,206.08)"
     id="g10"><g
       transform="scale(0.1)"
       id="g12"><path
         id="path14"
         style="fill:#100f0d;fill-opacity:1;fill-rule:nonzero;stroke:none"
         d="m 357.891,738.066 -92.911,0.547 c -0.507,3.184 -0.953,5.75 -1.214,7.383 -1.836,19.043 -7.266,31.027 -16.203,35.762 -8.934,4.785 -30.739,7.121 -65.352,7.285 -49.508,0.332 -74.32,-15.574 -74.481,-47.598 -0.136,-21.882 4.172,-34.875 12.836,-39.004 8.731,-4.187 38.278,-7.683 88.559,-10.371 67.809,-3.652 111.832,-12.84 132.254,-27.636 20.391,-14.688 30.496,-44.754 30.207,-90.059 C 371.324,526.141 357.555,492.711 330.273,474.141 302.91,455.719 253.941,446.621 183.359,447.012 115.645,447.301 69.3633,455.969 44.582,472.988 19.6719,489.969 7.45703,521.461 7.65234,567.59 l 0.06641,9.969 98.84025,-0.528 c -1.524,-5.566 -2.348,-9.922 -2.614,-13.254 -4.0505,-35.039 22.875,-52.738 81.012,-53.047 59.981,-0.308 90.098,16.95 90.313,51.809 0.195,33.328 -18.559,50.156 -56.09,50.399 -84.981,0.382 -140.9222,8.632 -167.7386,24.882 -26.9492,16.035 -40.3125,49.438 -40.0078,99.961 0.2227,45.293 12.75,75.852 37.4648,91.782 24.6875,15.886 72.0156,23.628 141.9646,23.32 66.153,-0.41 110.532,-8.352 133.309,-23.813 22.715,-15.703 33.98,-45.996 33.719,-91.004" /><path
         id="path16"
         style="fill:#100f0d;fill-opacity:1;fill-rule:nonzero;stroke:none"
         d="m 542.688,846.055 -2.008,-395.864 -95.078,0.43 2.097,395.91 z m 0.906,169.405 -0.449,-79.101 -94.985,0.457 0.399,79.104 95.035,-0.46" /><path
         id="path18"
         style="fill:#100f0d;fill-opacity:1;fill-rule:nonzero;stroke:none"
         d="M 960.582,843.879 844.219,658.125 971.445,447.922 857.758,448.5 778.773,592.715 700.508,449.379 583.813,449.891 714.758,657.578 601.254,845.73 l 113.238,-0.593 64.895,-125.774 67.91,125.16 113.285,-0.644" /><path
         id="path20"
         style="fill:#100f0d;fill-opacity:1;fill-rule:nonzero;stroke:none"
         d="m 1247.34,446.512 1.68,323.898 -56.06,0.254 0.38,72.078 56,-0.293 0.29,42.219 c 0.19,50.281 11.17,84.934 33.05,104.031 21.79,19.101 61.22,28.471 118.22,28.201 9.69,-0.08 23.07,-0.57 40.2,-1.46 l -0.4,-74.139 c -12.94,3.074 -24,4.734 -33.18,4.734 -41.67,0.156 -62.71,-20.43 -62.89,-61.836 l -0.27,-42.226 98.76,-0.528 -0.4,-72.011 -98.73,0.476 -1.64,-323.871 -95.01,0.473" /><path
         id="path22"
         style="fill:#100f0d;fill-opacity:1;fill-rule:nonzero;stroke:none"
         d="m 1749.66,570.598 95.41,-0.41 v -15.352 c -0.47,-77.316 -58.71,-115.656 -174.93,-115.055 -78.9,0.379 -130.37,13.989 -154.55,40.949 -24.23,26.981 -36.13,83.75 -35.67,170.442 0.38,76.992 13.43,128.769 39.03,155.129 25.51,26.347 75.3,39.336 149.09,38.98 70.8,-0.379 118.2,-13.511 142.12,-39.441 24,-25.965 35.7,-76.797 35.39,-152.41 l -0.21,-29.067 -268.44,1.36 c -0.66,-8.75 -0.93,-14.571 -0.93,-17.317 -0.14,-38.902 5.67,-64.918 17.63,-77.957 12.02,-13 35.94,-19.629 71.89,-19.847 34.92,-0.204 57.58,3.527 68.08,11.019 10.56,7.59 15.92,23.891 16.09,48.977 m 1.39,112.3 -0.37,15.747 c 0.2,31.492 -5.09,51.941 -15.98,61.394 -10.97,9.453 -34.63,14.199 -71.16,14.402 -35.43,0.247 -58.43,-5.32 -69.2,-16.636 -10.67,-11.25 -16.13,-35.879 -16.34,-74.028 l 173.05,-0.879" /><path
         id="path24"
         style="fill:#100f0d;fill-opacity:1;fill-rule:nonzero;stroke:none"
         d="m 2179.94,568.477 95.46,-0.508 -0.09,-15.293 c -0.38,-77.414 -58.72,-115.645 -174.87,-115.086 -78.9,0.422 -130.39,14.129 -154.55,40.961 -24.21,26.859 -36.17,83.656 -35.65,170.328 0.34,77.144 13.37,128.824 38.99,155.144 25.52,26.387 75.28,39.422 149.1,39.075 70.88,-0.422 118.26,-13.547 142.13,-39.473 24,-25.922 35.71,-76.738 35.37,-152.387 l -0.17,-28.941 -268.5,1.328 c -0.58,-8.898 -0.89,-14.672 -0.89,-17.402 -0.22,-38.926 5.65,-64.953 17.57,-77.985 12.02,-13.019 36.02,-19.609 71.91,-19.789 34.85,-0.179 57.55,3.5 68.11,11.063 10.6,7.468 15.97,23.847 16.08,48.965 m 1.41,112.238 -0.34,15.762 c 0.1,31.421 -5.18,51.875 -16.03,61.304 -10.97,9.504 -34.62,14.309 -71.18,14.492 -35.36,0.168 -58.45,-5.371 -69.18,-16.621 -10.65,-11.25 -16.08,-35.964 -16.31,-74.058 l 173.04,-0.879" /><path
         id="path26"
         style="fill:#100f0d;fill-opacity:1;fill-rule:nonzero;stroke:none"
         d="m 2612.03,835.43 -0.33,-72.012 -152.71,0.73 -1.07,-198.789 c -0.17,-36.699 13.75,-55.089 41.61,-55.289 30.66,-0.148 46.16,22.078 46.46,66.473 v 15.723 l 80.98,-0.371 -0.15,-19.852 c 0,-18.266 -0.66,-33.895 -1.85,-46.832 -5.55,-60.481 -50.79,-90.422 -135.76,-90.039 -84.6,0.41 -126.71,39.5 -126.4,117.074 l 1.15,212.402 -51.51,0.262 0.42,72.043 51.45,-0.234 0.48,88.691 94.97,-0.574 -0.45,-88.606 152.71,-0.8" /><path
         id="path28"
         style="fill:#100f0d;fill-opacity:1;fill-rule:nonzero;stroke:none"
         d="m 3245.2,833.555 -1.92,-396.004 -95.03,0.48 5.74,67.949 -1.69,0.399 c -18.91,-48.5 -61.58,-72.641 -128.23,-72.188 -89.86,0.438 -134.61,45.489 -134.16,135.25 l 1.43,265.825 94.91,-0.403 -1.24,-243.152 c -0.13,-33.606 4.52,-55.891 13.79,-66.512 9.38,-10.699 28.84,-16.187 58.51,-16.219 60.82,-0.289 91.4,35.981 91.84,108.793 l 1.12,216.27 94.93,-0.488" /><path
         id="path30"
         style="fill:#100f0d;fill-opacity:1;fill-rule:nonzero;stroke:none"
         d="m 3341.49,832.969 96.6,-0.403 -3.95,-58.816 2.08,-0.457 c 23.16,42.715 65.97,63.914 128.53,63.492 57.85,-0.242 97.61,-14.793 119.1,-43.394 21.55,-28.711 32.17,-80.891 31.76,-156.582 -0.45,-78.86 -11.48,-132.938 -33.26,-162.079 -21.71,-29.179 -61.77,-43.691 -120.06,-43.242 -62.24,0.211 -102.84,21.16 -121.66,62.633 h -1.7 l -1.13,-227.359 -99.19,0.539 z m 186.82,-70.977 c -36.31,0.344 -59.98,-7.754 -71.08,-24.012 -11.26,-16.195 -16.89,-50.667 -17.13,-103.402 -0.3,-51.387 5.48,-85.535 17.26,-102.379 11.84,-16.98 35.95,-25.5 72.56,-25.668 37.06,-0.211 61.19,7.617 72.21,23.668 11.2,15.953 16.88,50.184 17.21,103.055 0.26,54.09 -5.17,88.98 -16.32,104.844 -11.11,15.718 -35.98,23.757 -74.71,23.894" /><path
         id="path32"
         style="fill:#107790;fill-opacity:1;fill-rule:nonzero;stroke:none"
         d="m 4230.95,1098.16 c 1.41,-3.76 2.79,-7.52 4.22,-11.28 2.41,1.66 4.67,3.37 6.98,5.05" /><path
         id="path34"
         style="fill:#125f72;fill-opacity:1;fill-rule:nonzero;stroke:none"
         d="m 4327.73,808.176 c 46.73,46.621 91.76,95.086 134.92,145.293 -62.43,42.527 -126.73,82.421 -192.85,119.471 -6.6,-4.78 -13.2,-9.56 -19.73,-14.33 29.98,-82.047 56.02,-165.641 77.66,-250.434" /><path
         id="path36"
         style="fill:#4c97b7;fill-opacity:1;fill-rule:nonzero;stroke:none"
         d="m 4229.52,1132.47 c 13.89,-7.4 23.41,-11.11 37.28,-18.75 30.7,21.8 64.58,44.82 96.16,65.23 -43.01,49.19 -87.8,96.91 -134.53,142.87 -16.53,16.17 -38.05,37.94 -54.92,53.62 -16.75,-3.75 -30.48,-6.73 -46.92,-10.05 36.27,-72.04 73.35,-157.81 102.93,-232.92" /><path
         id="path38"
         style="fill:#bae3e1;fill-opacity:1;fill-rule:nonzero;stroke:none"
         d="m 4526.47,1032.7 c 0.99,-1.28 1.91,-2.63 2.81,-3.87 12.52,15.37 24.81,30.94 36.88,46.6 58.07,75.14 121.34,164.54 170.53,244.91 -1.16,11.77 -1.77,15.34 -3.17,27.04 -107.15,-49.44 -221.2,-109.22 -320.88,-172.5 39.51,-45.98 77.56,-93.42 113.83,-142.18" /><path
         id="path40"
         style="fill:#bae3e1;fill-opacity:1;fill-rule:nonzero;stroke:none"
         d="m 4687.39,1545.63 c -0.54,0.08 -2.29,-0.63 -2.57,-0.74 -17.7,-7.45 -28.42,-12.01 -42.81,-18.13 -138.26,-59.03 -280.41,-108.15 -427.38,-142.64 62.25,-58.61 121.61,-120.36 177.94,-184.91 103.39,65.67 225.59,130.45 336.59,181.18 -6.97,56.93 -22.24,109.17 -40.63,163.45 -0.17,0.74 -0.5,1.67 -1.14,1.79" /><path
         id="path42"
         style="fill:#143a4f;fill-opacity:1;fill-rule:nonzero;stroke:none"
         d="m 4302.04,786.73 c -17.5,70.204 -37.99,139.852 -61.5,208.602 -5.24,15.458 -10.81,30.848 -16.4,46.198 -91.34,-67.905 -176.86,-140.69 -258.81,-220.104 1.24,-7.063 3,-15.977 4.24,-23.035 72.44,-38.254 141.41,-79.114 210.1,-124.094 41.88,36.203 82.77,73.613 122.37,112.433" /><path
         id="path44"
         style="fill:#125f72;fill-opacity:1;fill-rule:nonzero;stroke:none"
         d="m 3959.42,853.438 c 28.2,27.082 73.89,70.468 140.76,125.964 38.02,31.508 76.93,61.828 116.49,91.088 -4.84,12.96 -9.72,25.97 -14.82,38.9 -10.91,5.72 -21.85,11.58 -32.83,17.18 -104.67,53.12 -212.84,101.37 -322.72,139.81 30.96,-85.36 75.43,-223.86 113.12,-412.942" /><path
         id="path46"
         style="fill:#4c97b7;fill-opacity:1;fill-rule:nonzero;stroke:none"
         d="m 4188.89,1146.56 c -27.81,68.67 -61.78,146 -95.11,211.8 -32.67,-6.38 -182.82,-37.29 -227.94,-43.29 -3.58,-2.4 -8.28,-5.71 -11.44,-8.65 -4.15,-3.96 -6.73,-7.47 -10.32,-11.96 117.66,-40.85 233.81,-90.79 344.81,-147.9" /><path
         id="path48"
         style="fill:#bae3e1;fill-opacity:1;fill-rule:nonzero;stroke:none"
         d="m 4673.13,854.387 c 24.02,23.941 50.85,49.207 75.81,72.254 4.6,126.169 2.37,188.519 -3.12,284.079 -1.06,18.71 -2.68,40.17 -4.32,58.78 -57.31,-91.32 -122.04,-182.23 -190.25,-266.11 27.61,-37.902 54.23,-76.437 79.75,-115.702 14.16,-10.918 28.16,-22.083 42.13,-33.301" /><path
         id="path50"
         style="fill:#143a4f;fill-opacity:1;fill-rule:nonzero;stroke:none"
         d="m 4345.35,549.617 c 3.42,-2.613 6.76,-5.355 10.19,-8.015 -10.9,70.421 -24.62,140.421 -41.27,209.875 -35.77,-34.739 -72.53,-68.293 -110.09,-100.832 48.11,-32.059 95.21,-65.684 141.17,-101.028" /><path
         id="path52"
         style="fill:#4c97b7;fill-opacity:1;fill-rule:nonzero;stroke:none"
         d="m 4568.37,907.395 c -13.91,20.41 -28.06,40.503 -42.57,60.535 -5.25,-6.309 -10.53,-12.5 -15.83,-18.75 19.68,-13.692 39.16,-27.586 58.4,-41.785" /><path
         id="path54"
         style="fill:#143a4f;fill-opacity:1;fill-rule:nonzero;stroke:none"
         d="m 4363.26,492.289 c -0.71,4.59 -2.03,13.449 -2.72,18 -55.6,43.793 -116.25,88.297 -175.38,127.563 -58.11,-49.454 -118.14,-96.293 -180.01,-140.391 1.42,-23.832 2.33,-47.711 3.17,-71.52 11.66,1.418 23.41,2.778 35.19,4.399 105.11,14.449 318.08,59.629 319.75,61.949" /><path
         id="path56"
         style="fill:#bae3e1;fill-opacity:1;fill-rule:nonzero;stroke:none"
         d="m 4695.84,834.629 c 16.35,-13.359 33.41,-28.176 49.38,-41.934 2.41,31.36 2.07,64.153 2.62,95.696 -18.82,-17.649 -33.69,-35.61 -52,-53.762" /><path
         id="path58"
         style="fill:#4c97b7;fill-opacity:1;fill-rule:nonzero;stroke:none"
         d="m 4480.43,977.844 c 6.86,8.015 13.54,16.199 20.21,24.266 -38.24,51.88 -78.59,102.32 -120.68,151.35 -29.47,-19 -57.06,-37.59 -85.7,-57.76 43.77,-24.79 85.62,-51.76 128.03,-79.12 19.56,-12.65 38.9,-25.623 58.14,-38.736" /><path
         id="path60"
         style="fill:#143a4f;fill-opacity:1;fill-rule:nonzero;stroke:none"
         d="m 4002.95,531.898 c 56.07,40.465 109.59,82.387 162.28,127.196 -25.47,16.636 -51.18,32.949 -77.33,48.687 -37.46,22.551 -75.44,43.821 -113.81,64.387 12.86,-79.844 23.34,-159.414 28.86,-240.27" /><path
         id="path62"
         style="fill:#125f72;fill-opacity:1;fill-rule:nonzero;stroke:none"
         d="m 4599.98,852.078 c -34.65,26.66 -69.94,52.434 -105.88,77.375 -46.49,-54.265 -95.31,-106.633 -146.29,-157.07 15.62,-63.496 29.02,-127.715 39.82,-192.41 2.92,-17.746 5.65,-35.504 8.28,-53.274 0.1,-0.051 0.17,-0.199 0.29,-0.25 71.6,97.469 149.96,190.121 234.58,277.047 -10.05,16.317 -20.34,32.488 -30.8,48.582" /><path
         id="path64"
         style="fill:#125f72;fill-opacity:1;fill-rule:nonzero;stroke:none"
         d="m 4726.14,647.773 c -21.77,40.411 -52.31,96.082 -76.08,135.352 -35.44,-36.504 -69.25,-74.629 -102.48,-113.27 -44.41,-51.527 -95.41,-112.167 -135.38,-166.675 6.81,0.961 206.71,58.265 302.43,97.98 5.62,19.504 7.4,25.656 11.51,46.613" /><path
         id="path66"
         style="fill:#4c97b7;fill-opacity:1;fill-rule:nonzero;stroke:none"
         d="m 4677.28,814.094 c -1.08,-1.145 -0.18,-0.332 -1.15,-1.438 20.01,-32.898 42.48,-71.218 61.06,-104.922 2.17,17.317 4.32,34.368 5.87,51.922 -19.94,17.407 -45.29,37.68 -65.78,54.438" /><path
         id="path68"
         style="fill:#69c32f;fill-opacity:1;fill-rule:nonzero;stroke:none"
         d="m 91.6016,97.4297 c 0,21.2423 -14.1485,34.7693 -32.8868,34.7693 -18.746,0 -33.1093,-13.527 -33.1093,-34.7693 0,-21.2383 14.3633,-34.7578 33.1093,-34.7578 18.7383,0 32.8868,13.5195 32.8868,34.7578 z m 26.4454,0 c 0,-34.5586 -23.9415,-57.0391 -56.4259,-57.0391 -14.1523,0 -26.6445,4.7891 -35.6016,14.9883 V 1.46094 H 0 V 153.02 h 24.7813 v -14.571 c 8.7382,10.61 21.6484,15.813 36.8398,15.813 32.4844,0 56.4259,-22.481 56.4259,-56.8323" /><path
         id="path70"
         style="fill:#69c32f;fill-opacity:1;fill-rule:nonzero;stroke:none"
         d="M 281.254,153.02 229.203,32.8906 C 219.008,7.69922 204.848,0 186.324,0 175.293,0 163.633,3.75 156.547,10.2109 l 10.418,19.1485 c 4.992,-4.8008 12.074,-7.711 19.148,-7.711 9.164,0 14.575,4.3829 19.571,15.4102 l 1.875,4.3711 -48.504,111.5903 h 27.058 L 221.09,70.7813 256.273,153.02 h 24.981" /><path
         id="path72"
         style="fill:#69c32f;fill-opacity:1;fill-rule:nonzero;stroke:none"
         d="m 404.906,47.8789 c -6.246,-5 -15.609,-7.4883 -24.98,-7.4883 -24.356,0 -38.305,12.8985 -38.305,37.4688 v 53.5116 h -18.32 v 20.809 h 18.32 v 25.402 h 26.02 V 152.18 H 397.41 V 131.371 H 367.641 V 78.4883 c 0,-10.8281 5.41,-16.6602 15.406,-16.6602 5.422,0 10.621,1.4532 14.574,4.5938 l 7.285,-18.543" /><path
         id="path74"
         style="fill:#69c32f;fill-opacity:1;fill-rule:nonzero;stroke:none"
         d="M 573.324,105.551 V 41.8516 h -26.019 v 60.3674 c 0,19.781 -9.789,29.351 -26.446,29.351 -18.519,0 -31.015,-11.242 -31.015,-33.5114 V 41.8516 H 463.816 V 196.32 h 26.028 v -56.211 c 8.535,9.172 21.648,14.153 37.058,14.153 26.653,0 46.422,-15.192 46.422,-48.711" /><path
         id="path76"
         style="fill:#69c32f;fill-opacity:1;fill-rule:nonzero;stroke:none"
         d="m 727.996,97.4297 c 0,21.2423 -14.156,34.7693 -33.101,34.7693 -18.739,0 -32.899,-13.527 -32.899,-34.7693 0,-21.2383 14.16,-34.7578 32.899,-34.7578 18.945,0 33.101,13.5195 33.101,34.7578 z m -92.226,0 c 0,33.3083 24.984,56.8323 59.125,56.8323 34.558,0 59.328,-23.524 59.328,-56.8323 0,-33.3086 -24.77,-57.0391 -59.328,-57.0391 -34.141,0 -59.125,23.7305 -59.125,57.0391" /><path
         id="path78"
         style="fill:#69c32f;fill-opacity:1;fill-rule:nonzero;stroke:none"
         d="M 926.188,105.551 V 41.8516 H 900.16 v 60.3674 c 0,19.781 -9.777,29.351 -26.433,29.351 -18.532,0 -31.028,-11.242 -31.028,-33.5114 V 41.8516 H 816.676 V 153.02 h 24.777 v -14.372 c 8.531,10.204 22.067,15.614 38.309,15.614 26.648,0 46.426,-15.192 46.426,-48.711" /><path
         id="path80"
         style="fill:#4c97b7;fill-opacity:1;fill-rule:nonzero;stroke:none"
         d="m 1124.36,155.309 c 0,-6.457 2.71,-11.25 13.12,-21.649 16.85,9.149 22.27,15.192 22.27,23.11 0,8.32 -6.03,13.941 -16.86,13.941 -11.66,0 -18.53,-6.449 -18.53,-15.402 z m 45.39,-83.2777 -38.52,36.8477 C 1114.36,99.5117 1108.54,91.8086 1108.54,81.4102 1108.54,69.3281 1120.2,61 1138.1,61 c 12.08,0 22.69,3.75 31.65,11.0313 z m 33.72,-32.4805 -18.32,17.6992 c -13.12,-11.2305 -29.78,-17.4805 -48.92,-17.4805 -30.82,0 -53.09,16.0196 -53.09,38.9297 0,18.1094 9.99,30.8008 33.73,44.1288 -11.87,11.871 -16.24,21.442 -16.24,32.051 0,20.41 16.65,34.371 42.26,34.371 23.53,0 38.93,-12.289 38.93,-32.07 0,-14.989 -8.74,-25.809 -29.78,-37.68 l 31.44,-29.9805 c 3.55,6.8711 6.25,15.1995 8.12,24.5585 l 21.03,-6.859 c -2.71,-12.7073 -7.08,-23.9495 -13.12,-33.3088 l 18.32,-17.4883 -14.36,-16.8711" /><path
         id="path82"
         style="fill:#69c32f;fill-opacity:1;fill-rule:nonzero;stroke:none"
         d="m 1361.88,97.4297 c 0,33.3083 24.99,56.8323 60.17,56.8323 21.65,0 38.93,-8.953 47.47,-25.813 l -19.99,-11.66 c -6.66,10.621 -16.65,15.41 -27.68,15.41 -19.16,0 -33.73,-13.328 -33.73,-34.7693 0,-21.6484 14.57,-34.7578 33.73,-34.7578 11.03,0 21.02,4.7773 27.68,15.3984 l 19.99,-11.6484 c -8.54,-16.6602 -25.82,-26.0313 -47.47,-26.0313 -35.18,0 -60.17,23.7305 -60.17,57.0391" /><path
         id="path84"
         style="fill:#69c32f;fill-opacity:1;fill-rule:nonzero;stroke:none"
         d="m 1528.43,196.32 h 26.02 V 41.8516 h -26.02 V 196.32" /><path
         id="path86"
         style="fill:#69c32f;fill-opacity:1;fill-rule:nonzero;stroke:none"
         d="m 1709.13,97.4297 c 0,21.2423 -14.16,34.7693 -33.11,34.7693 -18.73,0 -32.89,-13.527 -32.89,-34.7693 0,-21.2383 14.16,-34.7578 32.89,-34.7578 18.95,0 33.11,13.5195 33.11,34.7578 z m -92.23,0 c 0,33.3083 24.98,56.8323 59.12,56.8323 34.57,0 59.34,-23.524 59.34,-56.8323 0,-33.3086 -24.77,-57.0391 -59.34,-57.0391 -34.14,0 -59.12,23.7305 -59.12,57.0391" /><path
         id="path88"
         style="fill:#69c32f;fill-opacity:1;fill-rule:nonzero;stroke:none"
         d="M 1905.44,153.02 V 41.8516 h -24.77 v 14.1601 c -8.33,-10.2109 -21.44,-15.6211 -35.82,-15.6211 -28.51,0 -47.87,15.6211 -47.87,49.1289 V 153.02 H 1823 V 93.0586 c 0,-20.1992 9.58,-29.7773 26.02,-29.7773 18.11,0 30.39,11.25 30.39,33.5273 V 153.02 h 26.03" /><path
         id="path90"
         style="fill:#69c32f;fill-opacity:1;fill-rule:nonzero;stroke:none"
         d="m 2060.32,97.4297 c 0,21.2423 -14.36,34.7693 -33.1,34.7693 -18.73,0 -33.09,-13.527 -33.09,-34.7693 0,-21.2383 14.36,-34.7578 33.09,-34.7578 18.74,0 33.1,13.5195 33.1,34.7578 z m 25.61,98.8903 V 41.8516 h -24.98 v 14.3593 c -8.74,-10.6211 -21.65,-15.8203 -36.85,-15.8203 -32.27,0 -56.21,22.4805 -56.21,57.0391 0,34.5583 23.94,56.8323 56.21,56.8323 14.37,0 27.07,-4.793 35.81,-14.981 v 57.039 h 26.02" /><path
         id="path92"
         style="fill:#4c97b7;fill-opacity:1;fill-rule:nonzero;stroke:none"
         d="m 2269.12,106.391 h 63.08 c -2.08,16.019 -14.36,27.058 -31.44,27.058 -16.86,0 -29.14,-10.82 -31.64,-27.058 z m 87.44,-17.2894 h -87.23 c 3.12,-16.2422 16.65,-26.6524 36.01,-26.6524 12.5,0 22.28,3.9727 30.19,12.0821 L 2349.48,58.5 c -10,-11.8711 -25.6,-18.1094 -44.76,-18.1094 -37.27,0 -61.41,23.9375 -61.41,57.0391 0,33.1013 24.35,56.8323 57.45,56.8323 32.48,0 56.21,-22.692 56.21,-57.4534 0,-2.0781 -0.21,-5.207 -0.41,-7.707" /><path
         id="path94"
         style="fill:#4c97b7;fill-opacity:1;fill-rule:nonzero;stroke:none"
         d="m 2487.08,41.8516 -28.52,38.5078 -28.73,-38.5078 h -28.72 l 43.3,56.4101 -41.44,54.7583 h 28.94 l 27.27,-36.442 27.28,36.442 h 28.11 l -41.65,-54.3403 43.52,-56.8281 h -29.36" /><path
         id="path96"
         style="fill:#4c97b7;fill-opacity:1;fill-rule:nonzero;stroke:none"
         d="m 2664.66,97.4297 c 0,21.2423 -14.16,34.7693 -32.9,34.7693 -18.73,0 -33.09,-13.527 -33.09,-34.7693 0,-21.2383 14.36,-34.7578 33.09,-34.7578 18.74,0 32.9,13.5195 32.9,34.7578 z m 26.45,0 c 0,-34.5586 -23.95,-57.0391 -56.43,-57.0391 -14.15,0 -26.65,4.7891 -35.6,14.9883 V 1.46094 h -26.02 V 153.02 h 24.78 v -14.571 c 8.74,10.61 21.65,15.813 36.84,15.813 32.48,0 56.43,-22.481 56.43,-56.8323" /><path
         id="path98"
         style="fill:#4c97b7;fill-opacity:1;fill-rule:nonzero;stroke:none"
         d="m 2770,106.391 h 63.08 c -2.09,16.019 -14.37,27.058 -31.44,27.058 -16.86,0 -29.14,-10.82 -31.64,-27.058 z m 87.44,-17.2894 h -87.24 c 3.13,-16.2422 16.66,-26.6524 36.02,-26.6524 12.49,0 22.27,3.9727 30.19,12.0821 L 2850.36,58.5 c -9.99,-11.8711 -25.61,-18.1094 -44.77,-18.1094 -37.26,0 -61.41,23.9375 -61.41,57.0391 0,33.1013 24.36,56.8323 57.46,56.8323 32.48,0 56.21,-22.692 56.21,-57.4534 0,-2.0781 -0.21,-5.207 -0.41,-7.707" /><path
         id="path100"
         style="fill:#4c97b7;fill-opacity:1;fill-rule:nonzero;stroke:none"
         d="m 2984.61,154.262 v -24.774 c -2.28,0.41 -4.16,0.633 -6.03,0.633 -19.77,0 -32.27,-11.66 -32.27,-34.3593 V 41.8516 h -26.02 V 153.02 h 24.79 v -16.239 c 7.47,11.66 21.02,17.481 39.53,17.481" /><path
         id="path102"
         style="fill:#4c97b7;fill-opacity:1;fill-rule:nonzero;stroke:none"
         d="m 3115.16,47.8789 c -6.25,-5 -15.62,-7.4883 -24.99,-7.4883 -24.36,0 -38.31,12.8985 -38.31,37.4688 v 53.5116 h -18.31 v 20.809 h 18.31 v 25.402 h 26.02 V 152.18 h 29.78 v -20.809 h -29.78 V 78.4883 c 0,-10.8281 5.42,-16.6602 15.42,-16.6602 5.42,0 10.6,1.4532 14.58,4.5938 l 7.28,-18.543" /><path
         id="path104"
         style="fill:#4c97b7;fill-opacity:1;fill-rule:nonzero;stroke:none"
         d="m 3259.83,97.4297 c 0,33.3083 24.98,56.8323 60.17,56.8323 21.66,0 38.93,-8.953 47.46,-25.813 l -19.98,-11.66 c -6.67,10.621 -16.66,15.41 -27.69,15.41 -19.16,0 -33.73,-13.328 -33.73,-34.7693 0,-21.6484 14.57,-34.7578 33.73,-34.7578 11.03,0 21.02,4.7773 27.69,15.3984 l 19.98,-11.6484 c -8.53,-16.6602 -25.8,-26.0313 -47.46,-26.0313 -35.19,0 -60.17,23.7305 -60.17,57.0391" /><path
         id="path106"
         style="fill:#4c97b7;fill-opacity:1;fill-rule:nonzero;stroke:none"
         d="m 3508.81,97.4297 c 0,21.2423 -14.15,34.7693 -33.09,34.7693 -18.73,0 -32.9,-13.527 -32.9,-34.7693 0,-21.2383 14.17,-34.7578 32.9,-34.7578 18.94,0 33.09,13.5195 33.09,34.7578 z m -92.21,0 c 0,33.3083 24.97,56.8323 59.12,56.8323 34.56,0 59.33,-23.524 59.33,-56.8323 0,-33.3086 -24.77,-57.0391 -59.33,-57.0391 -34.15,0 -59.12,23.7305 -59.12,57.0391" /><path
         id="path108"
         style="fill:#4c97b7;fill-opacity:1;fill-rule:nonzero;stroke:none"
         d="M 3707,105.551 V 41.8516 h -26.03 v 60.3674 c 0,19.781 -9.78,29.351 -26.43,29.351 -18.54,0 -31.02,-11.242 -31.02,-33.5114 V 41.8516 H 3597.5 V 153.02 h 24.77 v -14.372 c 8.54,10.204 22.06,15.614 38.3,15.614 26.64,0 46.43,-15.192 46.43,-48.711" /><path
         id="path110"
         style="fill:#4c97b7;fill-opacity:1;fill-rule:nonzero;stroke:none"
         d="m 3764.88,52.8789 9.99,19.7813 c 9.77,-6.461 24.77,-11.0391 38.72,-11.0391 16.43,0 23.32,4.5781 23.32,12.2891 0,21.2304 -68.7,1.25 -68.7,45.5898 0,21.031 18.93,34.762 48.91,34.762 14.78,0 31.64,-3.543 41.64,-9.571 l -10,-19.781 c -10.6,6.238 -21.22,8.32 -31.84,8.32 -15.82,0 -23.31,-5.191 -23.31,-12.48 0,-22.4883 68.69,-2.512 68.69,-46.0117 0,-20.8164 -19.15,-34.3477 -50.38,-34.3477 -18.54,0 -37.05,5.4102 -47.04,12.4883" /><path
         id="path112"
         style="fill:#4c97b7;fill-opacity:1;fill-rule:nonzero;stroke:none"
         d="M 4029.89,153.02 V 41.8516 h -24.78 v 14.1601 c -8.32,-10.2109 -21.43,-15.6211 -35.81,-15.6211 -28.52,0 -47.88,15.6211 -47.88,49.1289 V 153.02 h 26.02 V 93.0586 c 0,-20.1992 9.59,-29.7773 26.02,-29.7773 18.13,0 30.4,11.25 30.4,33.5273 V 153.02 h 26.03" /><path
         id="path114"
         style="fill:#4c97b7;fill-opacity:1;fill-rule:nonzero;stroke:none"
         d="m 4101.51,196.32 h 26.02 V 41.8516 h -26.02 V 196.32" /><path
         id="path116"
         style="fill:#4c97b7;fill-opacity:1;fill-rule:nonzero;stroke:none"
         d="m 4271.37,47.8789 c -6.24,-5 -15.6,-7.4883 -24.99,-7.4883 -24.34,0 -38.3,12.8985 -38.3,37.4688 v 53.5116 h -18.32 v 20.809 h 18.32 v 25.402 h 26.03 V 152.18 h 29.77 v -20.809 h -29.77 V 78.4883 c 0,-10.8281 5.41,-16.6602 15.4,-16.6602 5.41,0 10.62,1.4532 14.58,4.5938 l 7.28,-18.543" /><path
         id="path118"
         style="fill:#4c97b7;fill-opacity:1;fill-rule:nonzero;stroke:none"
         d="m 4330.28,153.02 h 26.02 V 41.8516 h -26.02 z m -3.55,33.929 c 0,8.742 7.08,15.621 16.65,15.621 9.59,0 16.66,-6.461 16.66,-15 0,-9.148 -6.86,-16.23 -16.66,-16.23 -9.57,0 -16.65,6.859 -16.65,15.609" /><path
         id="path120"
         style="fill:#4c97b7;fill-opacity:1;fill-rule:nonzero;stroke:none"
         d="M 4537.42,105.551 V 41.8516 h -26.03 v 60.3674 c 0,19.781 -9.79,29.351 -26.44,29.351 -18.54,0 -31.02,-11.242 -31.02,-33.5114 v -56.207 h -26.01 V 153.02 h 24.76 v -14.372 c 8.55,10.204 22.07,15.614 38.3,15.614 26.65,0 46.44,-15.192 46.44,-48.711" /><path
         id="path122"
         style="fill:#4c97b7;fill-opacity:1;fill-rule:nonzero;stroke:none"
         d="m 4693.75,100.762 c 0,18.738 -14.16,31.437 -33.74,31.437 -19.76,0 -33.93,-12.699 -33.93,-31.437 0,-18.9417 14.17,-31.8518 33.93,-31.8518 19.58,0 33.74,12.9101 33.74,31.8518 z m 25.6,52.258 V 58.7109 C 4719.35,18.3203 4698.33,0 4659.39,0 c -20.81,0 -41.43,5.41016 -54.12,15.8203 l 11.65,19.5703 c 9.78,-8.1211 25.61,-13.3203 41.01,-13.3203 24.57,0 35.4,11.2383 35.4,33.7188 v 5.832 c -9.16,-9.9922 -22.27,-14.7695 -37.27,-14.7695 -31.86,0 -56.2,21.6484 -56.2,53.9104 0,32.269 24.34,53.5 56.2,53.5 15.62,0 29.36,-4.981 38.52,-16.032 v 14.79 h 24.77" /><path
         id="path124"
         style="fill:#ffffff;fill-opacity:1;fill-rule:nonzero;stroke:none"
         d="m 4396.2,526.449 c -0.12,0.051 -0.19,0.199 -0.29,0.25 -2.63,17.77 -5.36,35.528 -8.28,53.274 -10.8,64.695 -24.2,128.914 -39.82,192.41 50.98,50.437 99.8,102.805 146.29,157.07 35.94,-24.941 71.23,-50.715 105.88,-77.363 10.46,-16.106 20.75,-32.277 30.8,-48.594 C 4546.16,716.57 4467.8,623.918 4396.2,526.449 Z m -50.85,23.168 c -45.96,35.344 -93.05,68.969 -141.18,101.028 37.57,32.539 74.33,66.093 110.1,100.832 16.65,-69.454 30.37,-139.454 41.27,-209.875 -3.43,2.66 -6.77,5.39 -10.19,8.015 z m -95.28,508.993 c 6.53,4.77 13.13,9.55 19.73,14.33 66.12,-37.05 130.41,-76.944 192.85,-119.471 -43.16,-50.207 -88.19,-98.672 -134.92,-145.293 -21.64,84.793 -47.68,168.387 -77.66,250.434 z m -14.9,28.27 c -1.43,3.75 -2.81,7.53 -4.22,11.28 l 11.2,-6.23 c -2.31,-1.68 -4.57,-3.39 -6.98,-5.05 z m 144.79,66.58 c 42.09,-49.03 82.44,-99.47 120.68,-151.35 -6.67,-8.067 -13.35,-16.251 -20.22,-24.266 -19.23,13.113 -38.57,26.086 -58.13,38.736 -42.41,27.36 -84.26,54.33 -128.02,79.12 28.63,20.17 56.22,38.76 85.69,57.76 z M 4525.8,967.93 c 14.51,-20.032 28.66,-40.125 42.57,-60.535 -19.24,14.199 -38.72,28.093 -58.4,41.785 5.3,6.25 10.58,12.441 15.83,18.75 z M 4631,887.688 c -25.52,39.265 -52.14,77.8 -79.75,115.702 68.21,83.88 132.93,174.79 190.24,266.09 l -4.8,50.86 c -49.19,-80.37 -112.46,-169.77 -170.53,-244.91 -12.07,-15.66 -24.36,-31.23 -36.88,-46.6 -0.9,1.24 -1.82,2.59 -2.81,3.87 -36.26,48.76 -74.33,96.2 -113.83,142.18 99.68,63.28 213.72,123.06 320.88,172.5 l -4.36,33.01 c -111,-50.73 -233.2,-115.51 -336.59,-181.18 -56.32,64.55 -115.69,126.3 -177.94,184.91 l -41.12,-8.68 c 16.87,-15.68 38.39,-37.45 54.92,-53.62 46.73,-45.96 91.52,-93.68 134.53,-142.87 -31.58,-20.41 -65.46,-43.43 -96.16,-65.23 -13.87,7.64 -23.39,11.35 -37.28,18.75 -29.58,75.11 -66.66,160.88 -102.93,232.92 l -32.81,-7.03 c 33.33,-65.8 67.29,-143.13 95.1,-211.8 -110.99,57.11 -227.14,107.05 -344.8,147.9 l 2.22,-28.08 c 109.88,-38.44 218.05,-86.69 322.72,-139.81 10.98,-5.6 21.92,-11.46 32.83,-17.18 5.1,-12.93 9.98,-25.94 14.82,-38.9 -39.56,-29.26 -78.47,-59.58 -116.49,-91.088 -66.87,-55.496 -112.56,-98.882 -140.76,-125.964 l 5.91,-32.012 c 81.95,79.414 167.47,152.199 258.81,220.104 5.59,-15.35 11.16,-30.74 16.4,-46.198 23.52,-68.75 44,-138.398 61.5,-208.602 -39.6,-38.82 -80.49,-76.23 -122.36,-112.433 -68.7,44.98 -137.67,85.84 -210.11,124.082 l 4.52,-26.211 c 38.37,-20.566 76.35,-41.836 113.81,-64.387 26.15,-15.738 51.86,-32.051 77.33,-48.687 -52.69,-44.809 -106.21,-86.731 -162.28,-127.196 -0.01,0.133 -0.02,0.25 -0.03,0.383 l 2.23,-34.82 c 61.87,44.098 121.9,90.937 180.01,140.391 59.13,-39.266 119.78,-83.77 175.38,-127.563 0.69,-4.551 2.01,-13.41 2.72,-18 -0.16,-0.211 48.94,10.891 48.94,10.891 39.97,54.508 90.97,115.148 135.38,166.675 33.23,38.641 67.04,76.766 102.48,113.27 23.77,-39.27 54.31,-94.941 76.08,-135.352 -0.23,-1.152 11.05,59.961 11.05,59.961 -18.58,33.704 -41.05,72.024 -61.06,104.922 0.97,1.106 0.07,0.293 1.15,1.438 20.49,-16.758 45.84,-37.031 65.78,-54.438 l 2.16,33.039 c -15.97,13.758 -33.03,28.575 -49.38,41.934 18.31,18.152 33.18,36.113 52,53.762 l 1.1,38.25 c -24.96,-23.047 -51.79,-48.313 -75.81,-72.254 -13.97,11.218 -27.97,22.383 -42.13,33.301" /></g></g></svg>