<?xml version="1.0" encoding="UTF-8" standalone="no"?>
<svg
   xmlns:dc="http://purl.org/dc/elements/1.1/"
   xmlns:cc="http://creativecommons.org/ns#"
   xmlns:rdf="http://www.w3.org/1999/02/22-rdf-syntax-ns#"
   xmlns:svg="http://www.w3.org/2000/svg"
   xmlns="http://www.w3.org/2000/svg"
   viewBox="0 0 199.66667 65.160004"
   height="65.160004"
   width="199.66667"
   xml:space="preserve"
   id="svg2"
   version="1.1"><metadata
     id="metadata8"><rdf:RDF><cc:Work
         rdf:about=""><dc:format>image/svg+xml</dc:format><dc:type
           rdf:resource="http://purl.org/dc/dcmitype/StillImage" /></cc:Work></rdf:RDF></metadata><defs
     id="defs6" /><g
     transform="matrix(1.3333333,0,0,-1.3333333,0,65.16)"
     id="g10"><g
       transform="scale(0.1)"
       id="g12"><path
         id="path14"
         style="fill:#ed1c24;fill-opacity:1;fill-rule:evenodd;stroke:none"
         d="m 222.785,488.699 h 118.469 c 46.726,0 84.617,-37.883 84.617,-84.625 0,-46.738 -37.891,-84.613 -84.617,-84.613 h -50.777 v -67.703 h -67.692 v 236.941 z m 67.692,-67.695 h 50.777 c 9.34,0 16.922,-7.582 16.922,-16.93 0,-9.34 -7.582,-16.929 -16.922,-16.929 h -50.777 v 33.859 0" /><path
         id="path16"
         style="fill:#b2db18;fill-opacity:1;fill-rule:nonzero;stroke:none"
         d="M 53.5391,251.758 V 421.004 H 2.94531 v 67.695 H 222.785 V 251.758 l -12.93,43.09 V 294.07 H 133.934 L 121.238,251.758 H 53.5391 Z M 154.234,361.766 h 35.543 l -17.773,59.238 -17.77,-59.238 v 0" /><path
         id="path18"
         style="fill:#66c430;fill-opacity:1;fill-rule:nonzero;stroke:none"
         d="m 53.5391,251.758 h 67.6989 v 169.246 h 50.766 v 67.695 H 121.238 L 53.5391,251.758 v 0" /><path
         id="path20"
         style="fill:#ba151b;fill-opacity:1;fill-rule:nonzero;stroke:none"
         d="m 222.785,251.758 h 67.692 l -67.692,236.941 z" /><path
         id="path22"
         style="fill:#231f20;fill-opacity:1;fill-rule:evenodd;stroke:none"
         d="m 733.688,319.449 h 13.632 v 40.395 c 3.528,-0.973 7.774,-1.188 12.434,-1.188 14.09,0 25.871,3.715 33.359,11.078 5.586,5.289 8.477,12.887 8.477,22.02 0,9.121 -3.684,16.465 -9.356,21.348 -6.418,5.543 -16.445,8.742 -30.48,8.742 -11.961,0 -21.152,-0.91 -28.066,-2.035 z m 13.632,90.614 c 2.59,0.507 7.602,1.152 14.407,1.152 14.871,0 26.211,-5.699 26.211,-20.117 0,-13.707 -10.235,-21.625 -27.657,-21.625 -5.09,0 -9.492,0.371 -12.961,1.382 v 39.208" /><path
         id="path24"
         style="fill:#231f20;fill-opacity:1;fill-rule:evenodd;stroke:none"
         d="m 862.645,317.648 c 28.875,0 52.839,19.895 52.839,53.657 0,29.402 -20.554,51.457 -51.687,51.457 -30.254,0 -52.766,-22.149 -52.766,-53.809 0,-29.488 21.192,-51.305 51.446,-51.305 z m 0.183,10.797 c -23.105,0 -37.48,18.985 -37.48,40.957 0,22.75 13.125,42.555 37.89,42.555 24.727,0 37.641,-20.652 37.641,-41.301 0,-24.097 -14.465,-42.211 -37.883,-42.211 h -0.168" /><path
         id="path26"
         style="fill:#231f20;fill-opacity:1;fill-rule:evenodd;stroke:none"
         d="m 925.879,319.449 h 13.582 v 43.914 h 15.066 c 12.52,-0.547 18.391,-5.996 21.661,-19.879 3.019,-12.777 5.441,-21.14 7.089,-24.035 h 14.161 c -2.247,4.223 -4.786,14.305 -8.477,28.602 -2.52,9.558 -7.441,16.941 -15.273,19.804 v 0.36 c 10.773,3.336 20.078,12.316 20.078,25.797 0,7.926 -3.243,14.859 -8.27,19.109 -6.633,5.906 -16.359,8.723 -31.594,8.723 -10.066,0 -20.789,-0.91 -28.023,-2.231 z m 13.582,90.614 c 2.48,0.613 7.598,1.316 15.293,1.316 14.277,0 25.351,-5.156 25.351,-18.816 0,-11.504 -9.367,-18.981 -24.414,-18.981 h -16.23 v 36.481" /><path
         id="path28"
         style="fill:#231f20;fill-opacity:1;fill-rule:evenodd;stroke:none"
         d="m 1035.62,319.449 h 13.73 v 90.223 h 35.2 v 11.312 h -83.98 v -11.312 h 35.05 v -90.223" /><path
         id="path30"
         style="fill:#231f20;fill-opacity:1;fill-rule:evenodd;stroke:none"
         d="m 1092.6,420.984 v -57.226 c 0,-33.668 17.57,-46.11 40.11,-46.11 24.36,0 42.57,13.575 42.57,46.422 v 56.914 h -13.72 v -57.578 c 0,-23.746 -11.12,-34.859 -28.15,-34.859 -15.73,0 -27.06,10.789 -27.06,34.859 v 57.578 h -13.75" /><path
         id="path32"
         style="fill:#231f20;fill-opacity:1;fill-rule:evenodd;stroke:none"
         d="m 1281.62,372.805 h -36.59 v -10.766 h 23.01 v -29.293 c -3.73,-1.867 -10.7,-3.242 -20.85,-3.242 -27.54,0 -44.18,16.953 -44.18,40.836 0,23.398 16.95,40.449 45.54,40.449 11.89,0 19.7,-2.129 26.01,-4.945 l 3.52,10.906 c -4.79,2.238 -15.53,5.23 -29.04,5.23 -39.4,0 -60.43,-25.042 -60.43,-52.214 0,-14.871 5.56,-28.18 14.77,-36.789 10.89,-10.219 25.03,-14.594 42.62,-14.594 16.12,0 29.19,3.933 35.62,6.289 v 48.133" /><path
         id="path34"
         style="fill:#231f20;fill-opacity:1;fill-rule:evenodd;stroke:none"
         d="m 1356.77,351.84 12.28,-32.391 h 14.85 l -38.7,101.535 h -16.75 l -38.3,-101.535 h 14.39 l 11.75,32.391 z m -37.5,10.558 11.61,30.625 c 2.14,5.977 3.76,11.356 5.34,16.692 h 0.28 c 1.61,-5.231 3.18,-10.508 5.61,-16.953 l 11.62,-30.364 h -34.46" /><path
         id="path36"
         style="fill:#231f20;fill-opacity:1;fill-rule:evenodd;stroke:none"
         d="M 1391.89,319.449 H 1454 v 11.442 h -48.4 v 90.093 h -13.71 V 319.449" /><path
         id="path38"
         style="fill:#231f20;fill-opacity:1;fill-rule:evenodd;stroke:none"
         d="m 587.348,319.449 h 19.406 V 420.984 H 587.348 V 319.449" /><path
         id="path40"
         style="fill:#231f20;fill-opacity:1;fill-rule:evenodd;stroke:none"
         d="m 542.977,348.887 10.457,-29.438 H 574.75 L 537.77,420.984 H 512.543 L 476.645,319.449 h 20.359 l 9.726,29.438 z m -32.829,14.476 8.997,25.711 c 1.964,5.899 3.546,12.063 5.105,17.653 h 0.313 c 1.675,-5.532 3.46,-11.602 5.644,-17.77 l 9.258,-25.594 h -29.317" /><path
         id="path42"
         style="fill:#231f20;fill-opacity:1;fill-rule:nonzero;stroke:none"
         d="m 646.957,405.184 c 2.297,0.375 6.379,0.836 12.617,0.836 10.34,0 22.664,-2.801 22.664,-16.133 0,-10.059 -8.324,-16.305 -21.726,-16.305 h -13.555 z m 0,-47.176 12.27,0.004 c 11.308,-0.5 16.152,-4.996 19.175,-17.824 2.645,-11.215 4.414,-17.274 5.641,-20.731 h 19.914 c -1.844,4.367 -4.07,12.965 -7.019,24.402 l -0.567,2.188 c -2.293,8.707 -6.344,15.168 -11.871,19.008 8.816,4.375 16.766,12.976 16.766,26.277 0,8.488 -3.364,16.199 -9.172,21.113 -7.301,6.496 -17.594,9.399 -33.379,9.399 -9.899,0 -20.82,-0.875 -28.504,-2.278 l -2.199,-0.402 v -99.707 h 18.945 v 38.551" /><path
         id="path44"
         style="fill:#231f20;fill-opacity:1;fill-rule:nonzero;stroke:none"
         d="M -0.00390625,196.59 H 1453.21 v 3.015 H -0.00390625 v -3.015" /><path
         id="path46"
         style="fill:#d3d4d3;fill-opacity:1;fill-rule:nonzero;stroke:none"
         d="m 1340.67,102.32 c 5.28,7.325 11.14,14.348 17.58,21.035 6.48,6.7 13.35,12.844 20.49,18.391 l -7.67,-30.691 -30.4,-8.735" /><path
         id="path48"
         style="fill:#515257;fill-opacity:1;fill-rule:nonzero;stroke:none"
         d="m 1393.82,89.0781 c -8.99,0.8985 -17.99,2.4532 -27.01,4.6992 -9.04,2.2461 -17.75,5.1172 -26.15,8.5427 l 30.41,8.723 22.75,-21.9649" /><path
         id="path50"
         style="fill:#8f9295;fill-opacity:1;fill-rule:nonzero;stroke:none"
         d="m 1378.74,141.727 c 3.67,-8.223 6.84,-16.829 9.41,-25.743 2.56,-8.964 4.45,-17.9488 5.67,-26.9332 l -22.75,21.9922 7.67,30.684" /><path
         id="path52"
         style="fill:#8f9295;fill-opacity:1;fill-rule:nonzero;stroke:none"
         d="m 1329.93,39.2578 c -5.33,7.2852 -10.21,15.0391 -14.55,23.2031 -4.39,8.2305 -8.1,16.6485 -11.15,25.1524 l 26.81,-16.7578 -1.11,-31.5977" /><path
         id="path54"
         style="fill:#515257;fill-opacity:1;fill-rule:nonzero;stroke:none"
         d="m 1358.96,85.7109 c -3.65,-8.2617 -7.91,-16.3671 -12.82,-24.2382 -4.94,-7.9102 -10.35,-15.3008 -16.21,-22.2149 l 1.1,31.5977 27.93,14.8554" /><path
         id="path56"
         style="fill:#d3d4d3;fill-opacity:1;fill-rule:nonzero;stroke:none"
         d="m 1304.23,87.6133 c 8.97,0.9687 18.1,1.3281 27.39,1.0195 9.31,-0.3437 18.44,-1.3125 27.34,-2.9219 l -27.93,-14.8554 -26.8,16.7578" /><path
         id="path58"
         style="fill:#515257;fill-opacity:1;fill-rule:nonzero;stroke:none"
         d="m 1386.61,9.53906 c -8.58,-2.8125 -17.45,-5.05859 -26.6,-6.67968 -9.17,-1.60157 -18.3,-2.539067 -27.36,-2.8320362 L 1356.88,20.3477 1386.61,9.53906" /><path
         id="path60"
         style="fill:#8f9295;fill-opacity:1;fill-rule:nonzero;stroke:none"
         d="m 1351.38,51.5039 c 6.74,-5.9961 13.14,-12.5625 19.11,-19.6914 5.98,-7.1289 11.35,-14.5703 16.12,-22.27344 l -29.72,10.80864 -5.51,31.1562" /><path
         id="path62"
         style="fill:#d3d4d3;fill-opacity:1;fill-rule:nonzero;stroke:none"
         d="m 1332.66,0.0273438 c 1.84,8.8476562 4.33,17.6562562 7.52,26.3749562 3.18,8.7735 6.94,17.1211 11.23,25.1094 l 5.48,-31.1523 -24.23,-20.3320562" /><path
         id="path64"
         style="fill:#8f9295;fill-opacity:1;fill-rule:nonzero;stroke:none"
         d="m 1432.36,54.2734 c 0.05,-9.0195 -0.56,-18.1718 -1.85,-27.3711 -1.3,-9.1992 -3.26,-18.20308 -5.78,-26.90620625 L 1412.89,29.3516 l 19.47,24.9218" /><path
         id="path66"
         style="fill:#d3d4d3;fill-opacity:1;fill-rule:nonzero;stroke:none"
         d="m 1381.58,33.7461 c 7.79,4.5312 16.01,8.5977 24.62,12.0625 8.62,3.4961 17.37,6.3203 26.17,8.457 l -19.48,-24.9218 -31.31,4.4023" /><path
         id="path68"
         style="fill:#515257;fill-opacity:1;fill-rule:nonzero;stroke:none"
         d="M 1424.73,0.0273438 C 1416.91,4.5 1409.29,9.59766 1401.98,15.3203 c -7.34,5.7227 -14.15,11.9024 -20.39,18.4258 l 31.3,-4.3945 11.84,-29.3242562" /><path
         id="path70"
         style="fill:#8f9295;fill-opacity:1;fill-rule:nonzero;stroke:none"
         d="m 1403.98,111.598 c 8.58,-2.762 17.08,-6.153 25.43,-10.211 8.38,-4.0823 16.33,-8.7112 23.79,-13.8128 l -31.55,-2.1758 -17.67,26.1996" /><path
         id="path72"
         style="fill:#d3d4d3;fill-opacity:1;fill-rule:nonzero;stroke:none"
         d="m 1407.81,56.9609 c -1.91,8.8282 -3.23,17.8907 -3.88,27.1368 -0.63,9.289 -0.61,18.4763 0.05,27.5193 l 17.67,-26.2186 -13.84,-28.4375" /><path
         id="path74"
         style="fill:#515257;fill-opacity:1;fill-rule:nonzero;stroke:none"
         d="m 1453.21,87.5742 c -6.69,-6.0429 -13.88,-11.7187 -21.56,-16.9023 -7.75,-5.2149 -15.71,-9.7852 -23.84,-13.711 l 13.84,28.4375 31.56,2.1758" /><path
         id="path76"
         style="fill:#231f20;fill-opacity:1;fill-rule:nonzero;stroke:none"
         d="m 18.5781,58.1992 c 1.2774,2.7656 9.7344,21.3203 11.4297,25.1289 1.7656,-3.8086 10.2695,-22.3633 11.5313,-25.1289 z M 32.6602,90.9336 H 27.4531 L 2.16406,35.918 h 6.19922 c 0,0 7.24612,15.7226 7.83202,16.9804 H 43.8945 C 44.5,51.6172 51.6367,35.918 51.6367,35.918 h 6.3438 L 32.6602,90.9336" /><path
         id="path78"
         style="fill:#231f20;fill-opacity:1;fill-rule:nonzero;stroke:none"
         d="m 681.184,63.3398 c 0,-17.3476 12.101,-28.5742 29.855,-28.5742 16.516,0 26.508,11.1524 27.844,22.1953 l 0.16,1.3477 h -5.957 l -0.18,-1.0039 c -1.894,-10.5859 -10.293,-17.168 -21.867,-17.168 -17.101,0 -23.941,12 -23.941,23.25 0,13.7422 9.918,23.3477 24.125,23.3477 10.855,0 18.648,-5.1758 20.863,-13.836 l 0.227,-0.9179 h 5.945 l -0.332,1.4726 c -2.703,11.8672 -12.422,18.6641 -26.703,18.6641 -20.196,0 -30.039,-14.9024 -30.039,-28.7774 m 71.82,27.6133 V 35.918 h 44.406 v 5.3789 h -38.691 v 20.4219 h 36.726 v 5.2929 h -36.726 v 18.5508 h 38.23 v 5.3906 z m -93.426,0 V 45.0352 c -3.551,4.3007 -39.844,45.9179 -39.844,45.9179 h -5.718 V 35.918 h 5.644 V 81.8438 C 623.207,77.5664 659.5,35.918 659.5,35.918 h 5.723 V 90.9531 Z M 524.965,35.918 h 5.66 v 55.0273 h -5.66 z M 473.523,90.9531 V 35.918 h 39.571 v 5.3789 H 479.25 v 49.6562 z m -51.925,0 V 35.918 h 39.644 v 5.3789 H 427.34 v 49.6562 z m 150.89,-7.6054 c 1.742,-3.8204 10.184,-22.3829 11.442,-25.1485 h -22.946 c 1.266,2.7656 9.782,21.3281 11.504,25.1485 m -2.66,7.6054 -25.281,-55.0351 h 6.297 c 0,0 7.152,15.7109 7.734,17.0117 h 27.723 c 0.597,-1.3008 7.816,-17.0117 7.816,-17.0117 h 6.27 L 575.168,90.9531 Z M 379.734,83.3477 c 1.727,-3.8204 10.18,-22.3829 11.442,-25.1485 h -22.961 c 1.269,2.7656 9.769,21.3281 11.519,25.1485 m -2.656,7.6054 -25.312,-55.0351 h 6.324 c 0,0 7.14,15.7109 7.734,17.0117 h 27.719 c 0.594,-1.3008 7.801,-17.0117 7.801,-17.0117 h 6.265 l -25.222,55.0351 z m -84.062,-5.3906 c 8.695,0 12.91,-3.1328 12.91,-9.5781 0,-7.2461 -4.488,-10.7696 -13.715,-10.7696 h -21.816 v 20.3477 z m -28.364,5.3906 V 35.918 h 5.743 v 23.9258 h 22.277 c 9.805,0 12.101,-1.9649 12.355,-10.5079 0.215,-8.9453 0.614,-11.8867 1.813,-13.0703 l 0.336,-0.3476 h 5.922 l -0.926,1.7734 c -0.891,1.7188 -1.211,5.1172 -1.289,14.0274 -0.078,5.4257 -3.078,9.4023 -7.797,11.1289 6.164,2.7734 8.68,8.3632 8.68,12.9609 0,10.1953 -6.227,15.1445 -19.012,15.1445 z m -41.964,-7.6054 c 1.73,-3.8204 10.25,-22.3829 11.535,-25.1485 h -22.977 c 1.25,2.7656 9.719,21.3281 11.442,25.1485 m -2.583,7.6054 -25.292,-55.0351 h 6.226 c 0,0 7.219,15.7109 7.824,17.0117 h 27.715 c 0.582,-1.3008 7.731,-17.0117 7.731,-17.0117 h 6.351 l -25.312,55.0351 z m -73.261,0 v -5.3906 h 21.308 V 35.918 h 5.668 v 49.6445 h 21.309 v 5.3906 z M 90.5625,54.0039 c 0,-5.4726 1.5977,-9.4766 4.8008,-12.6875 4.2226,-4.2656 11.7887,-6.418 21.2267,-6.418 5.316,0 23.48,1.1563 23.48,16.2422 0,13.25 -12.093,14.4805 -22.793,15.5664 -10.996,1.1133 -19.1637,2.3243 -19.1637,9.8243 0,3.6992 1.9177,6.4062 5.8597,8.1914 4.062,1.875 8.414,2.1484 12.933,2.1484 3.5,0 9.903,-0.5469 13.512,-4.1289 1.656,-1.6797 2.516,-4.3477 2.516,-6.9805 l 5.546,-0.0508 c 0,4.0235 -1.281,8.1055 -3.828,10.6446 -4.644,4.6601 -12.453,5.6172 -18.195,5.6172 -7.875,0 -15.641,-1.6914 -20.4062,-6.4649 -2.5039,-2.4726 -3.7578,-5.5117 -3.7578,-8.9765 0,-12.9883 13.219,-14.0704 23.594,-14.9805 4.918,-0.4492 9.554,-0.8711 12.988,-2.3945 3.633,-1.5704 5.336,-4.1954 5.336,-8.2618 0,-2.5859 -0.863,-4.7461 -2.563,-6.4453 -4.019,-4.0195 -12.359,-4.4609 -15.406,-4.4609 -7.504,0 -13.523,1.6289 -16.7186,4.8164 -2.3007,2.293 -3.4726,5.1562 -3.4961,9.1992 h -5.4648" /><path
         id="path80"
         style="fill:#231f20;fill-opacity:1;fill-rule:nonzero;stroke:none"
         d="m 896.023,91.1719 h 8.055 V 35.8945 h -5.613 v 47.7539 h -0.188 L 873.934,35.8945 h -5.305 l -24.277,47.8047 h -0.137 V 35.8945 h -5.664 v 55.2774 h 8.301 l 24.601,-48.0781 24.57,48.0781" /><path
         id="path82"
         style="fill:#231f20;fill-opacity:1;fill-rule:nonzero;stroke:none"
         d="M 924.375,90.8555 V 35.8164 h 44.449 v 5.4102 H 930.113 V 61.668 h 36.762 v 5.2539 h -36.762 v 18.5625 h 38.293 v 5.3711 h -44.031" /><path
         id="path84"
         style="fill:#231f20;fill-opacity:1;fill-rule:nonzero;stroke:none"
         d="m 1043.67,91.1484 h 8.09 V 35.8555 h -5.65 V 83.582 h -0.17 l -24.37,-47.7265 h -5.26 L 992,83.6797 h -0.148 V 35.8555 h -5.653 v 55.2929 h 8.289 l 24.602,-48.0625 24.58,48.0625" /><path
         id="path86"
         style="fill:#231f20;fill-opacity:1;fill-rule:nonzero;stroke:none"
         d="m 1077.87,61.8438 h 25.38 c 6.62,0 11.58,-2.254 11.58,-10.2344 0,-7.5664 -5.59,-10.5 -12.96,-10.5 h -24 z m -5.65,-25.9258 h 30.55 c 8.49,0 18.16,4.1562 18.16,15.6914 0,7.0703 -4.38,12.3437 -11.6,13.4453 v 0.168 c 6.54,1.5507 9.45,6.5117 9.45,11.875 0,7.8906 -4.51,13.8945 -15.27,13.8945 h -31.29 z m 5.65,49.8906 h 24.55 c 6.22,0 10.68,-2.1602 10.68,-8.9258 0,-7.3828 -4.92,-9.8555 -12.58,-9.8555 h -22.65 v 18.7813" /><path
         id="path88"
         style="fill:#231f20;fill-opacity:1;fill-rule:nonzero;stroke:none"
         d="M 1138.92,90.918 V 35.8945 h 44.45 v 5.3907 h -38.75 v 20.4336 h 36.76 v 5.2929 h -36.76 v 18.5352 h 38.27 v 5.3711 h -43.97" /><path
         id="path90"
         style="fill:#231f20;fill-opacity:1;fill-rule:nonzero;stroke:none"
         d="m 1228.19,65.2148 h -21.83 V 85.5469 H 1229 c 8.69,0 12.93,-3.1485 12.93,-9.5821 0,-7.2382 -4.48,-10.75 -13.74,-10.75 m 19.96,-27.5703 c -0.91,1.7461 -1.23,5.1485 -1.29,14.0508 -0.09,5.4219 -3.08,9.3867 -7.81,11.1328 6.19,2.7657 8.69,8.3438 8.69,12.9492 0,10.2266 -6.2,15.1875 -19.01,15.1875 h -28.11 V 35.8945 h 5.74 v 23.9102 h 22.26 c 9.83,0 12.14,-1.9453 12.41,-10.4922 0.21,-8.9531 0.57,-11.875 1.79,-13.0664 l 0.35,-0.3516 h 5.91 l -0.93,1.75" /><path
         id="path92"
         style="fill:#231f20;fill-opacity:1;fill-rule:nonzero;stroke:none"
         d="m 1470.75,78.3789 h 1.41 v 12.4609 h 5.4 v 1.2774 h -12.22 v -1.2774 h 5.41 V 78.3789" /><path
         id="path94"
         style="fill:#231f20;fill-opacity:1;fill-rule:nonzero;stroke:none"
         d="m 1495.44,92.1172 h 2.03 V 78.3867 h -1.45 V 90.2695 H 1496 l -6.06,-11.8828 h -1.31 l -6.05,11.8946 h -0.06 V 78.3867 h -1.41 v 13.7305 h 2.07 l 6.12,-11.9649 6.14,11.9649" /></g></g></svg>