<svg data-name="Layer 1" xmlns="http://www.w3.org/2000/svg" viewBox="0 0 522.66 161.28"><path d="M88.8 25.05c4-1.64 7.71-3.27 10.13-4.58 5.3-2.81 7.33-5 7.33-7.85 0-2.55-2-4-5.37-4s-6.4 1-10 3.59V3.34A21.11 21.11 0 01102.79 0c8.37 0 13.73 4.58 13.73 11.77 0 6.34-3.79 10.33-12.94 13.8l16.61-.66v8.44H88.8zM142.49.2c9.61 0 16 6.67 16 16.67 0 10.46-6.61 17.33-16.74 17.33-9.75 0-16.15-6.67-16.15-16.74C125.62 7.06 132.35.2 142.49.2zm-.59 25.89c3.92 0 6.34-3.4 6.34-8.83s-2.29-9-6-9-6.35 3.53-6.35 8.89c-.01 5.61 2.28 8.94 6.01 8.94zm22.43-1.04c4-1.64 7.72-3.27 10.14-4.58 5.29-2.81 7.32-5 7.32-7.85 0-2.55-2-4-5.36-4s-6.41 1-10 3.59V3.34A21.13 21.13 0 01178.32 0c8.37 0 13.74 4.58 13.74 11.77 0 6.34-3.8 10.33-12.95 13.8l16.61-.66v8.44h-31.39zM218 .2c9.61 0 16 6.67 16 16.67 0 10.46-6.6 17.33-16.74 17.33-9.74 0-16.15-6.67-16.15-16.74C201.15 7.06 207.88.2 218 .2zm-.59 25.89c3.92 0 6.34-3.4 6.34-8.83s-2.28-9-6-9-6.35 3.53-6.35 8.89c.01 5.61 2.3 8.94 6.03 8.94zm-185.54-1h14.78v70.55a97.5 97.5 0 01-19.2 2C9.41 97.66 0 89.5 0 73.85 0 58.78 10 49 25.44 49a23.47 23.47 0 016.43.77zm0 36.57a14.83 14.83 0 00-5-.77c-7.49 0-11.81 4.61-11.81 12.68 0 7.87 4.13 12.19 11.71 12.19a34.27 34.27 0 005.09-.39zm43.01-11.61v34.27c0 11.8-.87 17.47-3.46 22.36-2.4 4.71-5.57 7.68-12.09 10.95L45.6 111.1c6.53-3.07 9.69-5.76 11.71-9.89s2.78-9.12 2.78-22V50.05zm13.92 3.36A44.45 44.45 0 01108.38 49c7.58 0 12.57 2 14.78 5.95 1.25 2.21 1.63 5.09 1.63 11.23v30.04a162.5 162.5 0 01-21.11 1.63c-12.39 0-18-4.32-18-13.92 0-10.36 7.4-15.16 25.54-16.7V64c0-2.69-1.34-3.65-5.09-3.65a38.64 38.64 0 00-17.33 4.48zm23.13 23.52c-9.79 1-13 2.49-13 6.33 0 2.88 1.83 4.22 5.86 4.22a40.71 40.71 0 007.1-.67zm24.87-24.58A88.76 88.76 0 01160 49c7.58 0 13.05 1.73 16.32 5.09 3.07 3.17 4 6.62 4 14v29h-14.73V68.67c0-5.66-1.92-7.78-7.2-7.78a22.37 22.37 0 00-6.81 1.11v35.08H136.8zm53.66 52.8a33.61 33.61 0 0015.84 3.93c9.69 0 13.82-3.93 13.82-13.34v-.29a20.22 20.22 0 01-9.6 2c-13 0-21.21-8.55-21.21-22.08 0-16.8 12.19-26.3 33.79-26.3a93.27 93.27 0 0119.29 2.11v11.63a75.48 75.48 0 00-8.39-1.34V63l.19 6.24.1 8.06c.09 2 .09 4 .19 6v4c0 12.67-1.06 18.62-4.22 23.52-4.61 7.2-12.58 10.75-23.91 10.75a42.4 42.4 0 01-15.93-2.88zM219.83 61h-1.53a16.15 16.15 0 00-8.55 2.11c-3.55 2-5.37 5.67-5.37 10.85 0 7.39 3.65 11.61 10.17 11.61a18.2 18.2 0 005.57-1v-5.05c0-1.73-.09-3.65-.09-5.67l-.1-6.81-.1-4.9zm51.65-12.2c14.78 0 23.81 9.31 23.81 24.38 0 15.46-9.41 25.15-24.39 25.15-14.78 0-23.9-9.33-23.9-24.28 0-15.56 9.41-25.25 24.48-25.25zm-.29 37.63c5.67 0 9-4.7 9-12.86S277 60.7 271.29 60.7c-5.86 0-9.22 4.71-9.22 12.87s3.36 12.86 9.12 12.86zm71.14-22.75a18.46 18.46 0 00-10.27-2.88c-8.55 0-14.31 4.7-14.31 12.09 0 7.68 5.67 12.58 14.31 12.58a20.89 20.89 0 0010.75-2.79v12a29.37 29.37 0 01-14.5 3.32c-15.74 0-25.63-9.21-25.63-23.9 0-15.07 10.85-25.24 26.78-25.24a29.06 29.06 0 0112.87 2.78zm30.72-14.88c14.78 0 23.8 9.31 23.8 24.38 0 15.46-9.4 25.15-24.38 25.15-14.78 0-23.9-9.31-23.9-24.28 0-15.56 9.43-25.25 24.48-25.25zm-.29 37.63c5.66 0 9-4.7 9-12.86s-3.26-12.87-8.93-12.87c-5.85 0-9.21 4.71-9.21 12.87s3.38 12.86 9.14 12.86zm34.18-34.08A88.76 88.76 0 01430.17 49c7.58 0 13.05 1.73 16.32 5.09 3.07 3.17 4 6.62 4 14v29h-14.76V68.67c0-5.66-1.92-7.78-7.2-7.78a22.37 22.37 0 00-6.81 1.11v35.08h-14.78zm52.7 35.95h8.5v8.78h-8.5zm20.83-.87c.24 2.93 2.5 4.52 6.39 4.52a14.14 14.14 0 007.87-2.26v5.71a18.75 18.75 0 01-8.93 2.21c-7.87 0-12.48-4.51-12.48-12.19S478 73 485.18 73C492 73 496 77.35 496 85c0 .38 0 1-.05 1.87l-.05.52zm8.74-5.13c-.24-2.69-1.63-4.13-4-4.13a4.47 4.47 0 00-4.61 4.13zm19.25-8.74V87.1c0 3 .86 4 3.79 4a16 16 0 003-.33V73.56h7.39v22.66l-.91.14a52.47 52.47 0 01-9.84 1c-4 0-6.72-.77-8.45-2.35s-2.4-3.65-2.4-8V73.56zM60.09 25.09h14.78v15.17H60.09zM247 116.54a61.28 61.28 0 0112.46-1.35c11.29 0 17.3 5.34 17.3 15.41 0 9.57-6.2 15.64-16.07 15.64a20.07 20.07 0 01-4.24-.43v15.47H247zm9.45 21.73a11.57 11.57 0 002.95.36c4.91 0 7.73-2.88 7.73-8s-2.58-7.8-7.43-7.8a12.75 12.75 0 00-3.25.37zm40.81-23.2c9.45 0 15.22 6 15.22 15.59 0 9.88-6 16.07-15.59 16.07s-15.28-5.95-15.28-15.52c0-9.94 6.02-16.14 15.65-16.14zm-.18 24.06c3.62 0 5.76-3 5.76-8.23s-2.08-8.22-5.7-8.22-5.89 3-5.89 8.22 2.14 8.23 5.83 8.23zm44.49-23.71h5.27v-7.34h9v7.34h6.63v8.12h-6.63v10.19c0 4.11.86 5.21 4.05 5.21a7.31 7.31 0 002-.37v7.12a30.06 30.06 0 01-5.1.49c-4.17 0-7.11-1-8.77-3.07-1.35-1.71-1.66-3.06-1.66-8.16v-11.41h-4.84zm40.07-.35c9.44 0 15.21 6 15.21 15.59 0 9.88-6 16.07-15.58 16.07S366 140.78 366 131.21c0-9.94 6-16.14 15.64-16.14zm-.19 24.06c3.62 0 5.77-3 5.77-8.23s-2.09-8.22-5.71-8.22-5.89 3-5.89 8.22 2.15 8.23 5.83 8.23zm-44.74-23.71a23.64 23.64 0 00-3.43-.23 39.5 39.5 0 00-14.36 2.89v27.86h9.45v-21.73a17.73 17.73 0 015.95-1 18 18 0 012.39.17z" fill="#fff"/></svg>