<svg xmlns="http://www.w3.org/2000/svg" viewBox="0 0 214.31 65.98"><defs><style>.cls-1,.cls-2{fill:#fff}</style></defs><g id="Layer_2" data-name="Layer 2"><g id="Layer_1-2" data-name="Layer 1"><path class="cls-1" d="M46.29 63.38c2.71-2.22 5.56-4.38 5.56-6.56 0-.92-.42-1.51-1.32-1.51s-1.41.7-1.41 1.89h-2.87a4.13 4.13 0 014.4-4.4c2.88 0 4.17 1.69 4.17 3.82 0 2.78-2.49 5-4.5 6.55H55v2.41h-8.71zm16.64-10.56c3.61 0 4.88 2.71 4.88 6.43s-1.27 6.46-4.88 6.46S58 63 58 59.25s1.31-6.43 4.93-6.43zm0 2.78c-1.75 0-2 1.7-2 3.65s.21 3.68 2 3.68 2-1.67 2-3.68-.25-3.65-2-3.65zm9.59.24H70.8v-2.76h4.81v12.69h-3.09zM82.57 62a1.49 1.49 0 001.6 1.37c1.25 0 1.69-1.06 1.69-3.48a3 3 0 01-2.52 1.13c-2.17 0-3.84-1.36-3.84-4a4 4 0 014.36-4.24c3.61 0 4.62 2.45 4.62 6.31 0 4.33-1 6.72-4.41 6.72A3.94 3.94 0 0179.83 62zm3-5A1.66 1.66 0 1084 58.73a1.51 1.51 0 001.62-1.65z"/><path class="cls-2" d="M16.56 1.74v-.66a2.24 2.24 0 01.81-.15q.81-.09 2-.12t2.49 0a14.49 14.49 0 012.26.19v4q0 10 .3 19.8t.06 18.42q-1.86 0-4.08.09a23.44 23.44 0 01-4-.15 1 1 0 01-.06-.42v-2a1.35 1.35 0 00-.27-.45c-.1-.1-.21 0-.33.21a4.27 4.27 0 01-2.4 2.31 6.76 6.76 0 01-3.18.27 9.77 9.77 0 01-5.4-1.77 9.43 9.43 0 01-3-3.9A19.26 19.26 0 01.39 32.1Q.06 29.16 0 26.16a30.08 30.08 0 01.27-4.08 18.88 18.88 0 01.84-3.63 9.42 9.42 0 011.5-2.82A5 5 0 014.86 14a13.16 13.16 0 013.57-.75 22.8 22.8 0 013.69 0 12.21 12.21 0 012.94.57q1.2.42 1.32 1-.06-2.82-.06-4.56V5.79q0-.62.06-1.08c0-.34 0-.72.06-1.14s.08-1.03.12-1.83zm-9.3 22.62a6.38 6.38 0 00-.36 1.74q-.06.9-.06 1.74a11.7 11.7 0 00.36 2.91 8.4 8.4 0 001.08 2.52A5.85 5.85 0 0010 35a4.1 4.1 0 002.28.66 3.83 3.83 0 002.39-.66A4.07 4.07 0 0016 33.24a8.79 8.79 0 00.54-2.73q.09-1.59.09-3.51 0-2.34-.09-3.69a5.58 5.58 0 00-.45-2.07 1.72 1.72 0 00-1.09-.93 7.75 7.75 0 00-2-.21 6.49 6.49 0 00-4 1.08 4.54 4.54 0 00-1.74 3.18z"/><path class="cls-2" d="M28.8 21.48v-8a11 11 0 002 .06q1-.06 2.07-.15l1.95-.15a8 8 0 011.71.06 28.3 28.3 0 01.18 3.45v4q0 2-.09 3.84a21.34 21.34 0 00.06 2.91v10.89c0 1.74-.1 10.5-.24 12.28s-.37 3.63-.69 5.55c-.52 1.24-1.37 1.22-2.55 1.94a13.84 13.84 0 01-4.05 1.62 28.19 28.19 0 01-4.86.69 46.35 46.35 0 01-5 0 8.5 8.5 0 01-.39-2 15.64 15.64 0 010-2.16 9.19 9.19 0 01.18-1.1q.12-1 .24-1.86 1 .06 2.37 0a17.11 17.11 0 002.67-.35 13.06 13.06 0 002.46-.75c.76-.32 1.34-1.76 1.74-2.32 0-1.68.06-4.5.06-6.46V26.7q0-2.88.18-5.22zM28.44 0l8 .18v1.29c0 .62 0 1.3.06 2l.06 2.28v2.07a1.52 1.52 0 01-1.08.48 11.6 11.6 0 01-2 .09q-1.11 0-2.43-.12a20.65 20.65 0 00-2.46 0q0-1.74-.15-3.63t0-4.64zM65.1 13.38q.06.36.09.72v1.32q-.18 6.48.06 12.75a122.66 122.66 0 01-.18 12.69v1.56a.84.84 0 01-.75.9h-.72q-1 0-2-.09c-.66-.06-1.31-.09-1.95-.09a9.09 9.09 0 00-1.29.09 9.18 9.18 0 01-1.29.09.82.82 0 01-.57-.48 2.16 2.16 0 01-.1-.84 4 4 0 01.12-1.08 3.75 3.75 0 00.12-1A12.58 12.58 0 0153 42.36a10.11 10.11 0 01-4.29 1 5.49 5.49 0 01-4-1.62 13.06 13.06 0 01-2.73-4 22.26 22.26 0 01-1.59-5.22 29.39 29.39 0 01-.51-5.22 18.58 18.58 0 01.78-5.52 14.48 14.48 0 012.13-4.35A10.21 10.21 0 0146 14.55a8.44 8.44 0 014-1.11h2a5.81 5.81 0 011.71.3 3.79 3.79 0 011.38.84 4.56 4.56 0 011 1.59 6.09 6.09 0 01.09-1.65 6.64 6.64 0 00.15-1.41s.13-.07.39-.09a6.45 6.45 0 01.87 0h1.66l2.49.12q1.44.12 3.36.24zM47.64 25.32a7.13 7.13 0 00-.3 1.59q-.06.81-.06 1.59a7.46 7.46 0 001.41 4.59A4.62 4.62 0 0052.62 35a4 4 0 002.25-.51A2.83 2.83 0 0056 33a7.41 7.41 0 00.36-2.28v-6.33A5.57 5.57 0 0056 22.5a1.35 1.35 0 00-.9-.84 7.37 7.37 0 00-1.89-.18 5.88 5.88 0 00-3.87 1.17 4.65 4.65 0 00-1.7 2.67zm29.82-8.82l.75-.42a4.75 4.75 0 00.79-.48 11.23 11.23 0 016-2 10.83 10.83 0 013.21.36A7.14 7.14 0 0191 15.42a4.18 4.18 0 01.93 2.25 27.47 27.47 0 01.42 4.11q.09 2.4.06 5.25t-.09 5.76q-.06 2.91-.12 5.61t.06 4.74a23.79 23.79 0 01-3.75.27h-3.75q-.12-1.38-.12-3.12t0-3.6v-3.72q0-1.86-.15-3.48-.06-.72-.12-1.59a16.13 16.13 0 00-.21-1.71 7.36 7.36 0 00-.42-1.5 2.35 2.35 0 00-.75-1 .18.18 0 00-.12-.06.17.17 0 01-.12-.06 5.16 5.16 0 00-1.41-.39 4 4 0 00-1.83.12 3.51 3.51 0 00-1.62 1.08 4 4 0 00-.84 2.43Q77 28.86 77 30.87t.15 4q.09 2 .09 4a33.05 33.05 0 01-.24 4v.24a9 9 0 01-1.77.36 13.26 13.26 0 01-1.53 0l-1.7-.09a16.84 16.84 0 00-2.4.06q0-7.38-.15-14.76t.09-15.3l1.2.09h1.8l1.2-.09a6.68 6.68 0 00.84-.09l1.2-.15a6.83 6.83 0 011.08 0c.32 0 .48.09.48.21a10.8 10.8 0 01.09 1.65 12.86 12.86 0 00.03 1.5zm35.34 44.76a10.85 10.85 0 01-2.16.06q-1.56-.06-4-.06a10.43 10.43 0 01-5-1.2A10 10 0 0198 56.82a5.51 5.51 0 01-.45-1.11q-.21-.69-.36-1.41a8.71 8.71 0 01-.19-1.38 6.77 6.77 0 010-1.14 5.86 5.86 0 011.62-.33 18.4 18.4 0 012.13-.06q1.11 0 2.16.12t1.77.21a3.26 3.26 0 001 2.49 3.72 3.72 0 002.22 1 3.8 3.8 0 002.4-.6 3.52 3.52 0 001.53-2.4L112 51v-7.11a9.21 9.21 0 010-2.1 3.55 3.55 0 01-1.41 1 7.86 7.86 0 01-1.74.42 14.86 14.86 0 01-1.89.12q-1 0-1.8.06a15.15 15.15 0 01-2.31-.18 10.08 10.08 0 01-2.22-.6 6.69 6.69 0 01-1.89-1.14 5.51 5.51 0 01-1.38-1.86 12.92 12.92 0 01-1.2-3.39 26.68 26.68 0 01-.48-3.63q0-2.82.12-6.06a22.12 22.12 0 011-6.09 11.41 11.41 0 013-4.8 9 9 0 015.88-2.19 8.43 8.43 0 013.57.51 4.09 4.09 0 012.37 2.31q.24.12.27-.21a6 6 0 000-.84q0-.51-.06-1a1.4 1.4 0 01.15-.81 24.45 24.45 0 014-.15q2 .09 4.08.09.24 7.5.27 15.69c0 5.46-.09 17.07-.33 22.83q-.06 1.44 0 2.85a4.06 4.06 0 01-.54 2.37 10.09 10.09 0 01-1.71 2.1 8.9 8.9 0 01-1.75 1.2 6.38 6.38 0 01-1.68.63 12.5 12.5 0 01-1.52.24zM102.42 29v.54a7.89 7.89 0 001.8 5.22 4.42 4.42 0 002.88 1.59 7.49 7.49 0 003.36-.21 1.71 1.71 0 00.84-.57 3.24 3.24 0 00.48-.9 6.11 6.11 0 00.27-1.08q.09-.57.15-1.11 0-2.4-.09-4.89a21.8 21.8 0 00-.69-4.77 2.89 2.89 0 00-1.17-1.41 4.29 4.29 0 00-1.77-.63 4.65 4.65 0 00-1.89.15 4.52 4.52 0 00-1.65.87 10.9 10.9 0 00-1.53 2.25 9.1 9.1 0 00-.87 2.61 6 6 0 00-.12 1.17zM125 15.9a4 4 0 011.35-1.56 9.13 9.13 0 012.16-1.11c.82-.3.7-.51 1.64-.63a22.56 22.56 0 012.85-.18 4.13 4.13 0 001.31 0 13.5 13.5 0 012.37 0 7.15 7.15 0 012.66.75 8.49 8.49 0 013 1.83 3.56 3.56 0 011.32 1.74 12.65 12.65 0 01.72 2.79 29.9 29.9 0 01.3 3.48q.06 1.89.12 3.87-.06 1.74-.15 4t-.3 4.26q-.21 2-.54 3.66a4.45 4.45 0 01-.93 2.22 5.51 5.51 0 01-2.67 2 7.14 7.14 0 01-2.57.75 14.69 14.69 0 01-3 0q-2-.15-3.72-.15c-2-.36-2.76-1.24-4.16-2.64a7.33 7.33 0 01-2.22-3.6 20.79 20.79 0 01-.72-4.53q-.12-2.37 0-4.77a34.65 34.65 0 00-.09-4.38q0-1.08.06-2.13a21.87 21.87 0 01.24-2.19 8.58 8.58 0 01.42-1.77q.41-1.05.55-1.71zm6.5 7.08a1.86 1.86 0 00-.54 1.2 30.68 30.68 0 00-.24 3.81q0 1.89-.12 4a2.65 2.65 0 00.72 2.13 4 4 0 001.89 1 2.08 2.08 0 001.31.12 5.66 5.66 0 002-.57 2.71 2.71 0 001.38-2q.24-1.92.39-3.87a13.17 13.17 0 00-.21-3.69 4.17 4.17 0 00-1.74-3.06c-1-.64-1.22-.78-2.78-.42a4 4 0 00-2.02 1.37zm22.86-2.49a.7.7 0 00-.15.27 2.34 2.34 0 01-.11.27 6.41 6.41 0 00-.1 1.47q-.06 1.35-.11 3.2t0 3.85q0 2 .13 3.47a7.59 7.59 0 00.65 2.38 2.59 2.59 0 001.75 1.49 3.49 3.49 0 001.74-.27 2.46 2.46 0 001.24-1.2 4.09 4.09 0 00.4-2 8.29 8.29 0 01.15-2.12 6.68 6.68 0 001.32 0h2.98a6.14 6.14 0 011.32.21 9.27 9.27 0 01.38 4.35 9.69 9.69 0 01-1.47 3.89 9.27 9.27 0 01-3 2.84 8.1 8.1 0 01-4.14 1.16 12.16 12.16 0 01-3.11 0 9.62 9.62 0 01-3-.84 6.48 6.48 0 01-2.33-1.83 5.4 5.4 0 01-1.11-2.94q-.08-1.51-.13-3.15t-.06-3.68v-4.62q0-2.62.06-6a4.6 4.6 0 01.06-1.45 7.84 7.84 0 01.4-1.37 10.33 10.33 0 01.95-2 7.35 7.35 0 011.37-1.64 5.07 5.07 0 011-.57 10 10 0 011.14-.4 10.08 10.08 0 013.83-.5 10.41 10.41 0 013.55.86 11.23 11.23 0 013 2 9.62 9.62 0 012.14 2.8 9.4 9.4 0 011 3.43 9 9 0 01-.5 3.78 10.74 10.74 0 01-3 .23 27.66 27.66 0 01-3.09-.4 13.38 13.38 0 01-.15-1.81 8.72 8.72 0 00-.23-1.87 2.85 2.85 0 00-.78-1.41 2.38 2.38 0 00-1.79-.5c-.36.06-.75.13-1.16.21a1.83 1.83 0 00-1.04.41zm45.97-4.12l.75-.42a4.75 4.75 0 00.75-.48 11.23 11.23 0 016-2 5.22 5.22 0 012.21.36 7.14 7.14 0 012.82 1.5 4.18 4.18 0 01.93 2.25 27.47 27.47 0 01.42 4.11q.09 2.4.06 5.25t-.09 5.76q-.06 2.91-.12 5.61t.06 4.74a23.79 23.79 0 01-3.75.27h-2.75q-.12-1.38-.12-3.12t0-3.6v-3.72q0-1.86-.15-3.48-.06-.72-.12-1.59a16.13 16.13 0 00-.21-1.71 7.36 7.36 0 00-.42-1.5 2.35 2.35 0 00-.75-1 .18.18 0 00-.12-.06.17.17 0 01-.12-.06 5.16 5.16 0 00-1.41-.39 4 4 0 00-1.83.12 3.51 3.51 0 00-1.62 1.08 4 4 0 00-.84 2.43q-.12 2.1-.06 4.11t.15 4q.09 2 .09 4a33.05 33.05 0 01-.24 4v.24a9 9 0 01-1.77.36h-.53l-1.74-.09a16.84 16.84 0 00-2.4.06q0-7.38-.15-14.76t.09-15.3l1.2.09h1.8l1.2-.09a6.68 6.68 0 00.84-.09c.4-.06-.2-.11.2-.15a6.83 6.83 0 011.08 0c.32 0 .48.09.48.21a10.8 10.8 0 01.09 1.68 12.86 12.86 0 00.09 1.38zm-30-.37a4 4 0 011.35-1.56 9.13 9.13 0 012.16-1.11c.82-.3.7-.51 1.64-.63a22.56 22.56 0 012.85-.18 12.74 12.74 0 002.31 0 4.55 4.55 0 011.37 0 13.11 13.11 0 013.66.75c1.16.42 1.16 1 2 1.83a3.56 3.56 0 011.33 1.83 12.65 12.65 0 01.72 2.79 29.9 29.9 0 01.3 3.48q.06 1.89.12 3.87-.06 1.74-.15 4t-.3 4.26q-.21 2-.54 3.66a4.45 4.45 0 01-.93 2.22 5.51 5.51 0 01-2.67 2A7.14 7.14 0 01183 44a14.69 14.69 0 01-3 0q-2-.15-3.72-.15c-2-.36-2.76-1.24-4.16-2.64a7.33 7.33 0 01-2.22-3.6 20.79 20.79 0 01-.72-4.53q-.12-2.37 0-4.77a34.65 34.65 0 00-.09-4.38q0-1.08.06-2.13a21.87 21.87 0 01.24-2.19 8.58 8.58 0 01.42-1.77q.34-1.15.52-1.84zm6.5 7.08a1.86 1.86 0 00-.54 1.2 30.68 30.68 0 00-.24 3.81q0 1.89-.12 4a2.65 2.65 0 00.72 2.13 4 4 0 001.89 1 6.36 6.36 0 002.31.12c.8-.1.46-.29 1-.57a2.71 2.71 0 001.38-2q.24-1.92.39-3.87a13.17 13.17 0 00-.21-3.69 4.17 4.17 0 00-1.74-3.06c-1-.64-1.22-.78-2.78-.42a4 4 0 00-2.06 1.38z"/><path class="cls-1" d="M139.92 55.36h-4.81V58h4.25v2.45h-4.25v2.85h4.81v2.54h-8v-13h8zm4.79-2.55h3.17v7.8c0 1.54.76 2.43 2.27 2.43a2.14 2.14 0 002.3-2.43v-7.8h3.17v7.78c0 3.6-2.52 5.38-5.53 5.38s-5.38-1.78-5.38-5.38zm21.29 0c3.19 0 4.79 1.84 4.79 4.1a3.79 3.79 0 01-2.9 3.77l3 5.16h-3.58l-2.71-4.92h-.76v4.92h-3.17v-13zm-.19 2.64h-2v3.23h2c1.19 0 1.75-.61 1.75-1.63s-.56-1.6-1.79-1.6zM180.75 66a6.67 6.67 0 116.66-6.68 6.56 6.56 0 01-6.66 6.68zm0-2.9c2.08 0 3.43-1.5 3.43-3.79s-1.35-3.79-3.43-3.79-3.45 1.48-3.45 3.77 1.33 3.79 3.45 3.79zm16.35-1.93h-2v4.68H192v-13h5.14c3.19 0 4.79 1.8 4.79 4.2-.04 2.11-1.51 4.12-4.83 4.12zm-.24-2.52c1.26 0 1.8-.63 1.8-1.63s-.54-1.63-1.8-1.63h-1.73v3.27zm17.45-3.29h-4.81V58h4.25v2.45h-4.25v2.85h4.81v2.54h-8v-13h8z"/></g></g></svg>